<?xml version="1.0" encoding="utf-8"?>
<!-- Generator: Adobe Illustrator 19.0.0, SVG Export Plug-In . SVG Version: 6.00 Build 0)  -->
<svg version="1.1" id="Layer_1" xmlns="http://www.w3.org/2000/svg" xmlns:xlink="http://www.w3.org/1999/xlink" x="500" y="500"
	 viewBox="0 0 1000 1000" xml:space="preserve">
<path id="XMLID_1_" d="M859.578064,529.5325317c9.0968018-7.8422852,21.6099854-4.5317993,21.6099854-4.5317993l8.6155396,8.8830566
	L903,538.0598145l-10.1607056-48.4937134l-36.2924194-29.8932495c-0.000061-0.0004883-0.0001831-0.0009766-0.0001831-0.0015259
	c-0.0782471-0.7752686-0.1707153-1.543396-0.2631836-2.3045654l0.2394409,0.9442139l-1.5536499-22.8504028
	c6.7571411-9.9295044,19.7008057-9.9703979,19.7008057-9.9703979l10.6210327,6.3504028l13.8276367,0.6182861l-22.3656616-44.2114868
	l-42.7097778-19.4437866c-0.000061-0.0002441-0.0001831-0.0004883-0.0003052-0.0007324
	c-0.2284546-0.5926514-0.4641724-1.1853638-0.6997681-1.7780151l0.2415161,0.4317017l-7.4147949-21.6696777
	c3.9569702-11.3400269,16.4489746-14.7296143,16.4489746-14.7296143l11.902832,3.3851318l13.5164795-2.9816895
	l-33.0463867-36.9163818l-46.3894043-7.7441406c-0.4681396-0.6453247-0.9432373-1.2836304-1.425354-1.921814l0.7362671,0.7563477
	l-12.7706299-19.012146c0.887085-11.9777832,12.0761719-18.4849854,12.0761719-18.4849854l12.3733521,0.1890259
	l12.2841797-6.3783569l-41.4749756-27.1054077l-46.8262939,4.5273438c-0.6294556-0.5150146-1.2589722-1.0085449-1.8956299-1.5092773
	l0.9416504,0.5606689l-17.2562256-15.059082c-2.2432251-11.7991943,6.8804321-20.9807129,6.8804321-20.9807129l12.0007324-3.0197754
	l10.2147217-9.3404541l-47.0772095-15.4472656l-43.9376221,16.4472656
	c-0.0007935-0.0003052-0.0014648-0.0007324-0.0021973-0.0010376c-0.5924072-0.256897-1.1849365-0.5137939-1.7843628-0.7636719
	l0.49823,0.140686L621.59198,160.3178101c-5.2207031-10.8165283,1.2157593-22.0465698,1.2157593-22.0465698l10.8101807-6.0228882
	l7.4492188-11.6660156l-49.4711304-2.7364502l-38.2402954,27.2991333c-0.00177-0.0002441-0.0036011-0.0005493-0.0054321-0.0007935
	c-0.7258911-0.1067505-1.4589233-0.213562-2.1920166-0.3203125l0.8482056,0.0114136l-22.4738159-4.4134521
	c-7.8422852-9.0968018-4.5317993-21.6100464-4.5317993-21.6100464l8.8830566-8.6155396l4.1759644-13.1964111l-48.4936523,10.1608276
	l-29.8856812,36.2831421c-0.7597656,0.0859985-1.5122681,0.1719971-2.2649536,0.2651978
	c-0.0129395,0.0015259-0.0258789,0.0033569-0.0388184,0.0048828l0.9342651-0.2368774l-22.8503418,1.5535889
	c-9.9295044-6.7570801-9.970459-19.7008057-9.970459-19.7008057l6.3504639-10.6210327l0.6182251-13.8276367l-44.2114868,22.3656616
	l-19.4393921,42.7001343c-0.0001221,0.000061-0.0003052,0.0001221-0.0004883,0.0001831
	c-0.5944214,0.229187-1.1817017,0.4655151-1.7688599,0.7019043l0.4179688-0.2338867l-21.6696777,7.4147339
	c-11.3400269-3.9569092-14.7296143-16.4489136-14.7296143-16.4489136l3.3851318-11.902832l-2.9816895-13.5164795
	l-36.9163818,33.0463867l-7.7433472,46.3842773c-0.6340942,0.4702148-1.2681885,0.9404297-1.9022217,1.4106445l0.7359619-0.7164917
	l-19.012146,12.7706909c-11.9777832-0.887085-18.4850464-12.0761719-18.4850464-12.0761719l0.1890869-12.3734131
	l-6.378418-12.2841797l-27.1054077,41.4750366l4.5275269,46.8276367c-0.0003662,0.0004272-0.0007324,0.0009155-0.0010376,0.0013428
	c-0.5157471,0.6303711-1.0100708,1.2608032-1.5115356,1.8982544l0.5638428-0.9469604l-15.059082,17.2561646
	c-11.7992554,2.2432861-20.9807129-6.8803711-20.9807129-6.8803711l-3.0197754-12.0006714l-9.3404541-10.2147827
	l-15.4473267,47.0772095l16.4470215,43.9369507c-0.0010986,0.0025024-0.0022583,0.0050049-0.0033569,0.0075073
	c-0.2510376,0.5812378-0.5022583,1.1624756-0.7462158,1.7437744c-0.0048828,0.0112915-0.0095215,0.0227661-0.0144043,0.0341187
	l0.1402588-0.49646l-10.0797119,20.5657959c-10.8165894,5.2206421-22.0465698-1.2156982-22.0465698-1.2156982l-6.0229492-10.8102417
	l-11.6658936-7.4492188l-2.7365112,49.4711304l27.2957764,38.2356567c0,0.0001221-0.000061,0.0002441-0.000061,0.0003052
	c-0.1130981,0.7581177-0.2104492,1.5213013-0.3187866,2.2810059l0.0125122-0.9274292l-4.4134521,22.473877
	c-9.0968018,7.8422852-21.6099854,4.5317383-21.6099854,4.5317383l-8.6156006-8.8829956L97,461.9400024l10.1607666,48.4937134
	l36.2935791,29.8942261c0.0846558,0.7544556,0.1624146,1.5109863,0.25177,2.2640381l-0.2290039-0.9030762l1.5535889,22.8503418
	c-6.7570801,9.9295044-19.7007446,9.970459-19.7007446,9.970459l-10.6210938-6.3504639l-13.8276367-0.6182251l22.3657227,44.2114868
	l42.6948242,19.4369507c0.0010376,0.0025024,0.0018921,0.0050659,0.0029297,0.0075684
	c0.2295532,0.5812378,0.4592285,1.1624756,0.696106,1.7437134c0.0028076,0.0070801,0.0057983,0.0140381,0.008606,0.0211182
	l-0.2341309-0.4185181l7.4147339,21.6696167c-3.9569092,11.3400269-16.4489136,14.7296143-16.4489136,14.7296143
	l-11.902832-3.3851318l-13.5164795,2.9816895l33.0463867,36.9163818l46.3834839,7.7432251
	c0.4694824,0.6331177,0.9390259,1.2662354,1.4084473,1.899292l-0.713501-0.7329102l12.7706909,19.012146
	c-0.887085,11.9777832-12.0762329,18.4850464-12.0762329,18.4850464l-12.3733521-0.1890869l-12.2841797,6.3783569
	l41.4750366,27.1054688l46.828125-4.5275879c0.6309204,0.5161133,1.2617798,1.0108643,1.8998413,1.5126953
	c0.0006714,0.0006104,0.0014648,0.0010986,0.0021973,0.001709l-0.9498901-0.5656128l17.2561646,15.059082
	c2.2432251,11.7991943-6.8803711,20.9807129-6.8803711,20.9807129l-12.0007324,3.0198364l-10.2147217,9.3403931
	l47.0771484,15.4472656l43.9387817-16.4476318c0.0010376,0.0004883,0.0021362,0.0009155,0.0031738,0.0014038
	c0.593689,0.2575073,1.187439,0.5149536,1.7883301,0.7654419l-0.5043335-0.1424561l20.5657959,10.0797729
	c5.2206421,10.8165283-1.2157593,22.0465088-1.2157593,22.0465088l-10.8101807,6.0229492l-7.4492188,11.6659546
	l49.4710693,2.7364502l38.2407227-27.2993774c0.0023804,0.0003662,0.0046997,0.0007324,0.007019,0.0010986
	c0.7258301,0.1066895,1.4586182,0.2134399,2.1844482,0.3201904l-0.8425903-0.0113525l22.4738159,4.4134521
	c7.8422852,9.0968018,4.5317383,21.6100464,4.5317383,21.6100464l-8.8829956,8.6155396L461.9401245,903l48.4937134-10.1608276
	l29.885437-36.2828979c0.760498-0.0861206,1.5209961-0.1721802,2.274353-0.2654419
	c0.0068359-0.0007935,0.0136719-0.0018311,0.0205078-0.0026245l-0.9251099,0.2346191l22.8503418-1.5536499
	c9.9295044,6.7571411,9.970459,19.7008057,9.970459,19.7008057l-6.3505249,10.6210938l-0.6181641,13.8276367l44.2114868-22.3657227
	l19.4389038-42.6990967c0.0010376-0.0004272,0.0020142-0.0007935,0.0030518-0.0012207
	c0.59198-0.2282715,1.1768799-0.463623,1.7617798-0.6990356l-0.4129639,0.2310791l21.6696167-7.4147949
	c11.3400879,3.9569092,14.7296753,16.4489746,14.7296753,16.4489746l-3.3851318,11.902832l2.9816895,13.5164185
	l36.9163208-33.0463867l7.7431641-46.3825684c0.0006714-0.0004883,0.0013428-0.0009766,0.0020752-0.0015259
	c0.6314697-0.4592896,1.2557373-0.9256592,1.8800659-1.399292c0.0132446-0.0098877,0.0261841-0.0201416,0.0394287-0.0300293
	l-0.755127,0.7349854l19.012207-12.7706299c11.9777832,0.887085,18.4850464,12.0761108,18.4850464,12.0761108l-0.1891479,12.3734131
	l6.378418,12.2841797l27.1054688-41.4750366l-4.5272827-46.8253174c0.0009155-0.0012207,0.0019531-0.0023804,0.0029297-0.0036011
	c0.5058594-0.6270142,1.0046387-1.2541504,1.503418-1.8882446l-0.5578613,0.9369507l15.059021-17.2562256
	c11.7992554-2.2432251,20.9807129,6.8804321,20.9807129,6.8804321l3.0198364,12.0006714l9.3404541,10.2147217l15.4472656-47.0771484
	l-16.4493408-43.9432983c0.0001831-0.0004272,0.0003662-0.0007935,0.0005493-0.0012207
	c0.2583008-0.5955811,0.5166626-1.1912231,0.7678223-1.7939453c0.0025635-0.0059814,0.0050049-0.0120239,0.0075684-0.0180054
	l-0.1498413,0.5305176l10.0797119-20.5657959c10.8165894-5.2206421,22.0465698,1.2157593,22.0465698,1.2157593l6.0229492,10.8102417
	l11.6658936,7.4491577l2.7365112-49.4711304l-27.3018188-38.2440796c0.0003052-0.0020752,0.0006104-0.0041504,0.0009155-0.0061646
	c0.107666-0.7319946,0.215271-1.4711304,0.322937-2.2030029c0.000061-0.0004272,0.0001221-0.0008545,0.0001831-0.0012207
	l-0.0116577,0.8649292L859.578064,529.5325317z M758.2367554,609.0952148
	c-14.1149902,33.3751221-34.3223267,63.348877-60.0551147,89.0888672
	c-25.7399902,25.7327881-55.7137451,45.9401855-89.0889282,60.0623169
	c-34.5591431,14.6101685-71.263916,22.0228882-109.0952759,22.0228882s-74.5361328-7.4127197-109.0952759-22.0228882
	c-33.3751221-14.1221313-63.348877-34.3295288-89.0888672-60.0623169
	c-25.7327881-25.7399902-45.9401245-55.7137451-60.0623169-89.0888672
	c-14.6101685-34.5591431-22.0228271-71.263916-22.0228271-109.0952759s7.4126587-74.5361328,22.0228271-109.0953369
	c14.1221924-33.3751221,34.3295288-63.348877,60.0623169-89.0888062
	c25.7399902-25.7327881,55.7137451-45.9401855,89.0888672-60.0623779
	c34.5591431-14.6101074,71.263916-22.0228271,109.0952759-22.0228271s74.5361328,7.4127197,109.0952759,22.0228271
	c33.3751831,14.1221924,63.348938,34.3295898,89.0889282,60.0623779
	c25.7327881,25.7399292,45.9401245,55.7136841,60.0551147,89.0888062
	c14.6173096,34.5592041,22.0300293,71.2639771,22.0300293,109.0953369S772.8540649,574.5360718,758.2367554,609.0952148z
	 M499.9974365,231.2120361c-148.2111206,0-268.7878418,120.5767212-268.7878418,268.7879028
	s120.5767212,268.7879028,268.7878418,268.7879028S768.7853394,648.2110596,768.7853394,499.999939
	S648.2086182,231.2120361,499.9974365,231.2120361z M385.9866943,512.9165649c-7.1328735,0-12.916626-5.7838135-12.916626-12.916626
	c0-7.1328735,5.7837524-12.916626,12.916626-12.916626c7.1328125,0,12.916626,5.7837524,12.916626,12.916626
	C398.9033203,507.1327515,393.1195068,512.9165649,385.9866943,512.9165649z M499.9974365,575.3469238
	c-41.6130371,0-75.3469849-33.7339478-75.3469849-75.3469849c0-41.6130981,33.7339478-75.3470459,75.3469849-75.3470459
	c41.6130981,0,75.3470459,33.7339478,75.3470459,75.3470459
	C575.3444824,541.6129761,541.6105347,575.3469238,499.9974365,575.3469238z M614.0082397,512.9165649
	c-7.1328125,0-12.916626-5.7838135-12.916626-12.916626c0-7.1328735,5.7838135-12.916626,12.916626-12.916626
	c7.1328735,0,12.916626,5.7837524,12.916626,12.916626C626.9248657,507.1327515,621.1411133,512.9165649,614.0082397,512.9165649z"
	/>
</svg>
